<?xml version="1.0" encoding="UTF-8" standalone="no"?>
<svg id="svg10305" xmlns:rdf="http://www.w3.org/1999/02/22-rdf-syntax-ns#" xmlns="http://www.w3.org/2000/svg" enable-background="new 0 0 100 100" xml:space="preserve" height="293.47" width="291.39" version="1.1" y="0px" x="0px" xmlns:cc="http://creativecommons.org/ns#" xmlns:dc="http://purl.org/dc/elements/1.1/" viewBox="0 0 291.3916 293.46957"><metadata id="metadata10469"><rdf:RDF><cc:Work rdf:about=""><dc:format>image/svg+xml</dc:format><dc:type rdf:resource="http://purl.org/dc/dcmitype/StillImage"/><dc:title/></cc:Work></rdf:RDF></metadata><g id="g5325" transform="translate(-.064773 5.7147)"><g id="g11026" transform="translate(88.646 81.76)"><g id="g10417" fill="#fff6a2" transform="matrix(1.7793 0 0 1.7793 -32.468 -33.247)"><circle id="circle10419" cy="63.176" cx="49.765" r="12.853"/><circle id="circle10421" cy="63.744" cx="32.08" r="3.632"/><circle id="circle10423" cy="55.601" cx="34.071" r="3.632"/><circle id="circle10425" cy="48.93" cx="39.728" r="3.632"/><circle id="circle10427" cy="45.769" cx="47.979" r="3.632"/><circle id="circle10429" cy="46.674" cx="56.388" r="3.632"/><circle id="circle10431" cy="51.789" cx="63.191" r="3.632"/><circle id="circle10433" cy="72.405" cx="34.565" r="3.633"/><circle id="circle10435" cy="78.605" cx="41.103" r="3.633"/><circle id="circle10437" cy="80.729" cx="49.789" r="3.633"/><path id="path10439" d="m61.979 79.105c-0.477 1.949-2.441 3.143-4.392 2.667-1.948-0.478-3.142-2.442-2.665-4.391 0.477-1.952 2.442-3.143 4.391-2.668 1.949 0.478 3.142 2.443 2.666 4.392z"/><g id="g10441"><path id="path10443" fill="#fff6a2" d="m67 37c0 1.65-1.35 3-3 3h-3c-1.65 0-3-1.35-3-3v-9c0-1.65 1.35-3 3-3h3c1.65 0 3 1.35 3 3v9z"/></g><g id="g10445"><path id="path10447" fill="#fff6a2" d="m42 37c0 1.65-1.35 3-3 3h-3c-1.65 0-3-1.35-3-3v-9c0-1.65 1.35-3 3-3h3c1.65 0 3 1.35 3 3v9z"/></g><path id="path10449" d="m90 15c-3-5-35-7-40-7s-37 2-40 7-3 11-3 13c0 0.67 0 5 3 5h14c2 0 4-2 4-4s0-6 3-7 19-2 19-2 16 1 19 2 3 5 3 7 2 4 4 4h14c3 0 3-4.33 3-5 0-2 0-8-3-13z"/><g id="g10451"><path id="path10453" fill="#fff6a2" d="m32 93.5c0 0.825-0.9 1.5-2 1.5h-8c-1.1 0-2-0.675-2-1.5s0.9-1.5 2-1.5h8c1.1 0 2 0.675 2 1.5z"/></g><g id="g10455"><path id="path10457" fill="#fff6a2" d="m80 93.5c0 0.825-0.9 1.5-2 1.5h-8c-1.1 0-2-0.675-2-1.5s0.9-1.5 2-1.5h8c1.1 0 2 0.675 2 1.5z"/></g><path id="path10459" d="m78.295 39.989c-1.089-1.911-2.117-3.678-4.295-3.989-7-1-13.5-1.5-24-1.5s-17 0.5-24 1.5c-2.178 0.311-3.206 2.078-4.295 3.989-5.705 10.011-7.705 25.011-7.41 47.022 0.029 2.2 2.521 5.717 4.705 5.989 8 1 19.5 1.5 31 1.5s23-0.5 31-1.5c2.184-0.272 4.676-3.789 4.705-5.989 0.295-22.011-1.705-37.011-7.41-47.022zm-8.97 34.815-5.325-3.804l-1 1 3.636 6.362c-2.877 3.113-6.667 5.446-11.093 6.528-1.857 0.454-3.715 0.651-5.543 0.633-1.828 0.019-3.686-0.179-5.543-0.633-11.993-2.932-19.337-15.03-16.406-27.022 2.516-10.294 11.788-17.157 21.949-17.042 10.16-0.115 19.433 6.748 21.949 17.042 1.469 6.007 0.358 12.041-2.624 16.936z"/></g></g><ellipse id="path4484-1" rx="140.7" ry="141.73" stroke="#fff6a2" cy="141.02" cx="145.76" stroke-width="10" fill="none"/></g></svg>
