<?xml version="1.0" encoding="UTF-8" standalone="no"?>
<!-- Created with Inkscape (http://www.inkscape.org/) -->

<svg
   xmlns:dc="http://purl.org/dc/elements/1.1/"
   xmlns:cc="http://creativecommons.org/ns#"
   xmlns:rdf="http://www.w3.org/1999/02/22-rdf-syntax-ns#"
   xmlns:svg="http://www.w3.org/2000/svg"
   xmlns="http://www.w3.org/2000/svg"
   xmlns:sodipodi="http://sodipodi.sourceforge.net/DTD/sodipodi-0.dtd"
   xmlns:inkscape="http://www.inkscape.org/namespaces/inkscape"
   width="84.666664mm"
   height="84.666664mm"
   viewBox="0 0 299.99999 299.99999"
   id="svg10294"
   version="1.1"
   inkscape:version="0.91 r13725"
   sodipodi:docname="Fax.svg">
  <defs
     id="defs10296">
    <clipPath
       clipPathUnits="userSpaceOnUse"
       id="clipPath5236-0">
      <rect
         style="fill:#c0b77e;fill-opacity:1;stroke:#c0b77e;stroke-width:10;stroke-miterlimit:4;stroke-dasharray:none;stroke-opacity:1"
         id="rect5238-9"
         width="30.472218"
         height="27.472363"
         x="-1.4570625"
         y="-1.4006172" />
    </clipPath>
    <clipPath
       clipPathUnits="userSpaceOnUse"
       id="clipPath5737-1">
      <rect
         style="fill:#2e2e2e;fill-opacity:1;stroke:#2e2e2e;stroke-width:4.5;stroke-miterlimit:4;stroke-dasharray:none;stroke-opacity:1"
         id="rect5739-1"
         width="127.71967"
         height="98.245903"
         x="-10.734593"
         y="-28.905882" />
    </clipPath>
    <clipPath
       clipPathUnits="userSpaceOnUse"
       id="clipPath5656">
      <rect
         style="fill:#2e2e2e;fill-opacity:1;stroke:#2e2e2e;stroke-width:4.5;stroke-miterlimit:4;stroke-dasharray:none;stroke-opacity:1"
         id="rect5658"
         width="115.21564"
         height="113.42936"
         x="-8.9480782"
         y="-16.131367" />
    </clipPath>
  </defs>
  <sodipodi:namedview
     id="base"
     pagecolor="#ffffff"
     bordercolor="#666666"
     borderopacity="1.0"
     inkscape:pageopacity="0.0"
     inkscape:pageshadow="2"
     inkscape:zoom="1.4"
     inkscape:cx="128.41455"
     inkscape:cy="125.36615"
     inkscape:document-units="px"
     inkscape:current-layer="layer1"
     showgrid="false"
     showborder="true"
     inkscape:window-width="451"
     inkscape:window-height="729"
     inkscape:window-x="911"
     inkscape:window-y="18"
     inkscape:window-maximized="0"
     fit-margin-top="0"
     fit-margin-left="0"
     fit-margin-right="0"
     fit-margin-bottom="0" />
  <metadata
     id="metadata10299">
    <rdf:RDF>
      <cc:Work
         rdf:about="">
        <dc:format>image/svg+xml</dc:format>
        <dc:type
           rdf:resource="http://purl.org/dc/dcmitype/StillImage" />
        <dc:title></dc:title>
      </cc:Work>
    </rdf:RDF>
  </metadata>
  <g
     inkscape:label="Layer 1"
     inkscape:groupmode="layer"
     id="layer1"
     transform="translate(753.01083,-336.08893)">
    <g
       transform="matrix(4.2157558,0,0,4.2157558,53969.406,51208)"
       id="g11017">
      <circle
         r="35.047096"
         cy="-12191.314"
         cx="-12928.451"
         id="circle5533"
         style="fill:none;fill-opacity:1;stroke:#fff6a2;stroke-width:1.0674243;stroke-miterlimit:4;stroke-dasharray:none;stroke-opacity:1"
         transform="translate(-16.420263,159.80374)" />
      <g
         style="fill:#fff6a2;fill-opacity:1"
         clip-path="url(#clipPath5656)"
         transform="matrix(0.37455197,0,0,0.37455197,-12963.531,-12049.446)"
         id="g5648">
        <path
           style="fill:#fff6a2;fill-opacity:1"
           inkscape:connector-curvature="0"
           d="M 1.454,94.891 C 0.717,94.767 0.146,94.192 0.026,93.453 0.003,93.309 0,89.638 0,62.678 0,35.718 0.004,32.048 0.026,31.903 c 0.12,-0.738 0.686,-1.309 1.427,-1.438 0.134,-0.023 1.334,-0.026 9.669,-0.026 10.347,0 9.634,-0.007 9.946,0.098 0.635,0.213 1.092,0.791 1.162,1.468 0.027,0.258 0.027,61.089 0,61.348 -0.053,0.52 -0.331,0.98 -0.766,1.271 -0.179,0.119 -0.308,0.178 -0.53,0.239 l -0.171,0.048 -9.585,0 c -7.777,0 -9.611,0 -9.724,-0.021 l 0,0.001 z"
           id="path5634" />
        <path
           style="fill:#fff6a2;fill-opacity:1"
           inkscape:connector-curvature="0"
           d="M 99.96,36.44 C 99.879,36.15 99.782,35.944 99.622,35.72 99.31,35.282 98.88,34.993 98.317,34.843 l -0.153,-0.04 -4.545,-0.009 -4.546,-0.009 0,-11.985 0,-11.985 L 83,5.407 76.926,0 55.767,0.004 l -21.16,0.004 -0.005,17.393 -0.004,17.394 -3.838,0 c -4.216,0 -3.999,-0.005 -4.337,0.108 -0.662,0.222 -1.185,0.737 -1.399,1.378 -0.029,0.088 -0.068,0.233 -0.086,0.323 -0.033,0.156 -0.033,1.124 -0.033,26.326 0,25.203 10e-4,26.171 0.033,26.326 0.115,0.574 0.403,1.043 0.844,1.378 0.299,0.227 0.585,0.35 0.977,0.423 l -0.004,-0.002 c 0.104,0.016 6.67,0.025 35.696,0.025 32.073,0 35.586,-0.002 35.729,-0.026 0.87,-0.151 1.536,-0.764 1.78,-1.637 L 100,89.272 100,62.929 100,36.584 99.96,36.44 Z M 77.477,10.085 C 77.477,9.86 77.49,8.529 77.503,7.128 77.516,5.727 77.528,4.32 77.529,4 c 0,-0.319 0.007,-0.581 0.015,-0.581 0.012,0 4.026,3.566 7.391,6.564 l 0,0 0.572,0.51 -4.016,0 -4.015,0 0,-0.408 z M 44.466,58.283 c -0.005,-2.023 0,-2.878 0.014,-3.006 0.09,-0.791 0.68,-1.412 1.473,-1.549 0.138,-0.021 0.531,-0.021 3.064,-0.021 l 2.907,0 0.135,0.037 c 0.703,0.202 1.161,0.671 1.324,1.356 0.03,0.126 0.033,0.319 0.039,2.915 0.004,1.911 0,2.847 -0.014,2.989 -0.072,0.769 -0.573,1.369 -1.322,1.587 l -10e-4,0.009 -0.144,0.041 -2.952,0 c -2.799,0.003 -2.96,0.002 -3.105,-0.029 -0.681,-0.146 -1.212,-0.674 -1.379,-1.369 -0.031,-0.126 -0.033,-0.314 -0.039,-2.96 z m 7.737,15.342 -0.172,0.047 -2.898,0 c -3.097,0.002 -3.035,0.004 -3.302,-0.086 -0.368,-0.123 -0.695,-0.368 -0.917,-0.689 -0.113,-0.164 -0.182,-0.308 -0.249,-0.523 l -0.051,-0.162 0,-3.016 0,-3.016 0.042,-0.142 c 0.216,-0.747 0.825,-1.242 1.604,-1.308 0.285,-0.023 5.366,-0.023 5.635,0 0.247,0.021 0.425,0.068 0.624,0.161 0.544,0.254 0.904,0.725 1.005,1.311 0.022,0.139 0.027,0.525 0.022,3.057 l -0.005,2.896 -0.047,0.171 c -0.18,0.652 -0.642,1.113 -1.294,1.294 l 0.003,0.005 z m 1.268,-26.481 0,2.943 -0.049,0.18 c -0.026,0.099 -0.089,0.262 -0.138,0.361 -0.269,0.542 -0.785,0.903 -1.396,0.978 -0.198,0.025 -5.604,0.023 -5.796,0 -0.763,-0.098 -1.369,-0.659 -1.535,-1.426 -0.028,-0.137 -0.032,-0.343 -0.032,-3.036 0,-2.692 0.002,-2.899 0.032,-3.036 0.169,-0.781 0.783,-1.338 1.57,-1.428 0.221,-0.025 5.522,-0.025 5.742,0 0.758,0.086 1.348,0.594 1.553,1.34 l 0.049,0.18 0,2.944 z m 0.054,36.28 c -0.12,0.742 -0.675,1.315 -1.416,1.468 l 0.002,-0.002 c -0.169,0.033 -0.254,0.033 -3.042,0.033 -1.62,0 -2.911,-0.008 -2.967,-0.018 -0.739,-0.123 -1.317,-0.686 -1.467,-1.431 -0.027,-0.128 -0.028,-0.445 -0.023,-3.094 l 0.005,-2.953 0.042,-0.135 c 0.201,-0.652 0.652,-1.088 1.317,-1.272 0.111,-0.032 0.277,-0.032 3.096,-0.032 l 2.979,0 0.151,0.041 c 0.398,0.106 0.79,0.373 1.019,0.695 0.15,0.211 0.258,0.476 0.305,0.741 0.038,0.237 0.04,5.707 -0.001,5.959 z m 2.88,-28.288 c 0.111,-0.635 0.543,-1.152 1.14,-1.367 0.311,-0.109 0.181,-0.109 3.316,-0.109 3.088,0 2.982,-0.002 3.267,0.095 0.51,0.174 0.935,0.594 1.103,1.084 0.099,0.288 0.095,0.149 0.095,3.283 0,2.418 -0.004,2.92 -0.025,3.029 -0.14,0.728 -0.703,1.289 -1.434,1.428 -0.13,0.024 -0.489,0.024 -3.021,0.024 -1.581,0 -2.898,-0.01 -2.929,-0.01 -0.341,-0.048 -0.72,-0.231 -0.968,-0.471 -0.301,-0.289 -0.474,-0.609 -0.543,-1.009 -0.041,-0.23 -0.041,-5.746 -10e-4,-5.977 z m 8.975,-5.219 c -0.041,0.476 -0.192,0.806 -0.521,1.135 -0.319,0.317 -0.649,0.475 -1.098,0.52 l 0,-0.007 c -0.221,0.022 -5.491,0.022 -5.722,0 -0.819,-0.079 -1.486,-0.737 -1.588,-1.564 -0.013,-0.099 -0.02,-1.112 -0.02,-2.916 0,-2.323 0.004,-2.792 0.026,-2.935 0.122,-0.804 0.762,-1.42 1.567,-1.512 0.129,-0.014 0.986,-0.014 3.006,-0.014 l 2.825,0.01 0.181,0.05 c 0.677,0.186 1.151,0.68 1.317,1.369 0.028,0.12 0.032,0.346 0.038,2.884 0.006,1.883 0.003,2.826 -0.011,2.98 z m 0.031,16.115 0.049,0.18 0.006,2.826 c 0.004,1.946 0,2.88 -0.014,2.997 -0.092,0.812 -0.708,1.453 -1.513,1.576 -0.145,0.023 -0.606,0.023 -2.961,0.023 -1.534,-0.001 -2.847,-0.008 -2.917,-0.018 -0.739,-0.094 -1.354,-0.67 -1.515,-1.42 -0.032,-0.144 -0.032,-0.311 -0.032,-3.042 0,-2.701 0.002,-2.898 0.031,-3.037 0.107,-0.497 0.399,-0.91 0.835,-1.179 0.241,-0.149 0.47,-0.22 0.795,-0.248 0.325,-0.029 5.678,-0.015 5.821,0.015 0.27,0.056 0.553,0.183 0.757,0.34 0.327,0.25 0.547,0.58 0.658,0.987 z m 0.055,14.503 c -0.008,3.15 0.003,2.9 -0.138,3.245 -0.212,0.518 -0.648,0.9 -1.202,1.054 l 0,0.002 -0.179,0.049 -2.915,0 c -2.831,0.004 -2.922,0.004 -3.084,-0.031 -0.782,-0.165 -1.344,-0.789 -1.425,-1.584 -0.024,-0.246 -0.025,-5.442 0,-5.71 0.04,-0.428 0.229,-0.822 0.533,-1.111 0.223,-0.213 0.46,-0.352 0.757,-0.444 l 0.158,-0.051 3.007,0 3.007,0 0.143,0.042 c 0.626,0.181 1.103,0.649 1.268,1.243 0.074,0.265 0.076,0.362 0.07,3.296 z m 2.551,-19.492 0,-2.952 0,-2.951 0.05,-0.181 c 0.186,-0.675 0.719,-1.167 1.403,-1.296 0.133,-0.021 0.481,-0.021 3.084,-0.021 l 2.933,0.01 0.142,0.041 c 0.537,0.155 0.952,0.501 1.173,0.979 0.086,0.187 0.133,0.369 0.153,0.599 0.012,0.118 0.018,1.26 0.018,2.834 0,1.576 -0.006,2.718 -0.018,2.837 -0.022,0.252 -0.07,0.422 -0.18,0.647 -0.245,0.502 -0.697,0.851 -1.252,0.965 l 0.001,-0.005 c -0.154,0.031 -0.301,0.031 -3.042,0.031 -2.721,0 -2.89,-0.002 -3.037,-0.033 -0.692,-0.146 -1.209,-0.647 -1.387,-1.344 l -0.041,-0.16 z m 1.736,-9.483 c -0.551,-0.042 -1.002,-0.285 -1.334,-0.723 -0.111,-0.147 -0.235,-0.398 -0.284,-0.578 -0.073,-0.266 -0.075,-0.4 -0.069,-3.313 l 0.006,-2.799 0.049,-0.18 c 0.192,-0.708 0.763,-1.226 1.469,-1.333 0.259,-0.038 5.652,-0.038 5.907,0 0.683,0.104 1.258,0.604 1.447,1.256 0.084,0.289 0.086,0.368 0.079,3.335 -0.006,2.575 -0.01,2.799 -0.038,2.92 -0.086,0.354 -0.238,0.634 -0.482,0.883 -0.31,0.312 -0.67,0.482 -1.123,0.524 l 0,-0.002 c -0.181,0.02 -5.406,0.027 -5.627,0.01 z m -1.602,14.741 c 0.023,-0.246 0.07,-0.422 0.169,-0.63 0.268,-0.562 0.793,-0.932 1.415,-0.997 0.231,-0.025 5.511,-0.025 5.742,0 0.236,0.024 0.41,0.074 0.621,0.179 0.423,0.208 0.753,0.589 0.908,1.041 0.094,0.276 0.093,0.249 0.086,3.329 -0.005,2.667 -0.008,2.866 -0.037,2.992 -0.176,0.736 -0.793,1.294 -1.533,1.384 l 0,0.002 c -0.188,0.021 -5.629,0.021 -5.826,0 -0.585,-0.068 -1.104,-0.439 -1.365,-0.978 -0.109,-0.226 -0.155,-0.394 -0.18,-0.651 -0.011,-0.124 -0.018,-1.174 -0.018,-2.835 0,-1.661 0.008,-2.711 0.018,-2.836 z m 8.944,14.207 -0.006,2.861 -0.04,0.147 c -0.174,0.648 -0.643,1.118 -1.292,1.299 l 0,0.002 -0.181,0.05 -2.915,0 C 70.346,84.87 69.718,84.865 69.618,84.846 69.175,84.765 68.804,84.55 68.539,84.22 68.304,83.925 68.183,83.614 68.15,83.216 68.137,83.07 68.133,82.023 68.137,80.237 c 0.008,-3.009 0.001,-2.815 0.107,-3.131 0.176,-0.521 0.624,-0.947 1.177,-1.121 l 0.161,-0.051 3.024,0 3.023,0 0.163,0.051 c 0.215,0.068 0.328,0.121 0.504,0.237 0.432,0.288 0.716,0.748 0.783,1.27 0.015,0.107 0.02,1.031 0.016,3.016 z m 9.953,-56.797 0,0 -0.005,11.076 -25.188,0.004 -25.187,0.004 0,-16.38 0,-16.381 19.379,0 19.381,0 -0.012,0.824 C 75.41,3.31 75.389,5.439 75.37,7.587 c -0.019,2.149 -0.039,4.164 -0.045,4.478 l -0.011,0.572 5.869,0 5.869,0 -0.004,11.074 z"
           id="path5636" />
        <text
           style="font-weight:bold;font-size:5px;font-family:'Helvetica Neue', Helvetica, Arial-Unicode, Arial, Sans-serif;fill:#fff6a2;fill-opacity:1"
           x="0"
           y="109.91"
           font-size="5px"
           font-weight="bold"
           id="text5638">Created by Braden Stranks</text>
        <text
           style="font-weight:bold;font-size:5px;font-family:'Helvetica Neue', Helvetica, Arial-Unicode, Arial, Sans-serif;fill:#fff6a2;fill-opacity:1"
           x="0"
           y="114.91"
           font-size="5px"
           font-weight="bold"
           id="text5640">from the Noun Project</text>
      </g>
    </g>
  </g>
</svg>
