<?xml version="1.0" encoding="UTF-8" standalone="no"?>
<!-- Created with Inkscape (http://www.inkscape.org/) -->

<svg
   xmlns:dc="http://purl.org/dc/elements/1.1/"
   xmlns:cc="http://creativecommons.org/ns#"
   xmlns:rdf="http://www.w3.org/1999/02/22-rdf-syntax-ns#"
   xmlns:svg="http://www.w3.org/2000/svg"
   xmlns="http://www.w3.org/2000/svg"
   xmlns:sodipodi="http://sodipodi.sourceforge.net/DTD/sodipodi-0.dtd"
   xmlns:inkscape="http://www.inkscape.org/namespaces/inkscape"
   width="84.666977mm"
   height="85.2528mm"
   viewBox="0 0 300.0011 302.07685"
   id="svg4985"
   version="1.1"
   inkscape:version="0.91 r13725"
   sodipodi:docname="Legacy.svg">
  <defs
     id="defs4987">
    <clipPath
       clipPathUnits="userSpaceOnUse"
       id="clipPath5008-5">
      <rect
         style="fill:#fff6a2;fill-opacity:1;stroke:#fff6a2;stroke-width:10;stroke-miterlimit:4;stroke-dasharray:none;stroke-opacity:1"
         id="rect5010-35"
         width="124.75384"
         height="108.08632"
         x="-18.271376"
         y="-7.9389219" />
    </clipPath>
  </defs>
  <sodipodi:namedview
     id="base"
     pagecolor="#ffffff"
     bordercolor="#666666"
     borderopacity="1.0"
     inkscape:pageopacity="0.0"
     inkscape:pageshadow="2"
     inkscape:zoom="0.49497475"
     inkscape:cx="-306.21101"
     inkscape:cy="-115.82002"
     inkscape:document-units="px"
     inkscape:current-layer="layer1"
     showgrid="false"
     inkscape:showpageshadow="false"
     showborder="true"
     inkscape:window-width="679"
     inkscape:window-height="729"
     inkscape:window-x="683"
     inkscape:window-y="18"
     inkscape:window-maximized="0"
     fit-margin-top="0"
     fit-margin-left="0"
     fit-margin-right="0"
     fit-margin-bottom="0" />
  <metadata
     id="metadata4990">
    <rdf:RDF>
      <cc:Work
         rdf:about="">
        <dc:format>image/svg+xml</dc:format>
        <dc:type
           rdf:resource="http://purl.org/dc/dcmitype/StillImage" />
        <dc:title></dc:title>
      </cc:Work>
    </rdf:RDF>
  </metadata>
  <g
     inkscape:label="Layer 1"
     inkscape:groupmode="layer"
     id="layer1"
     transform="translate(-402.25347,-91.446339)">
    <g
       style="display:inline"
       id="g4933"
       transform="matrix(1.9179109,0,0,1.9174935,26530.153,22356.31)">
      <g
         id="g4913">
        <g
           id="g4907">
          <g
             id="g4910">
            <ellipse
               style="fill:none;fill-opacity:1;stroke:#fff6a2;stroke-width:5.21457386;stroke-miterlimit:4;stroke-dasharray:none;stroke-opacity:1"
               id="path4484-3"
               cx="-13544.894"
               cy="-11532.673"
               rx="75.603096"
               ry="76.161392" />
          </g>
        </g>
      </g>
      <g
         style="fill:#fff6a2;fill-opacity:1"
         clip-path="url(#clipPath5008-5)"
         transform="translate(-13594.807,-11583.323)"
         id="g4986">
        <path
           style="fill:#fff6a2;fill-opacity:1"
           inkscape:connector-curvature="0"
           d="m 74.987053,59.970303 0,-23.320252 c -21.846298,0 -23.504788,-15.669857 -23.504788,-15.669857 l -3.545734,0 c 0,0 -1.658489,15.669857 -23.504787,15.669857 l 0,6.825867 c 3.400163,2.083416 10.498562,4.502002 25.0489,6.442043 13.201225,1.760162 21.237458,5.499409 25.506409,10.052342 z"
           id="path4960" />
        <path
           style="fill:#fff6a2;fill-opacity:1"
           inkscape:connector-curvature="0"
           d="M 47.193073,69.419502 C 37.948029,67.871498 30.028895,66.517372 24.431744,64.421417 l 0,1.852677 c 0,0 0.228756,24.248253 25.277656,28.480255 C 59.948444,93.024467 66.039787,87.950066 69.664169,82.554497 67.513573,78.014214 61.88559,71.879646 47.193073,69.419502 Z"
           id="path4962" />
        <path
           style="fill:#fff6a2;fill-opacity:1"
           inkscape:connector-curvature="0"
           d="m 31.809158,14.17467 2.516327,6.462388 2.973843,-1.258163 c 0,0 -0.629082,6.233629 -10.408446,6.233629 0,0 3.259787,-2.287571 3.660113,-5.43298 l -5.032656,-3.431356 c 0,0 4.117628,0.171568 6.290819,-2.573518 z"
           id="path4964" />
        <path
           style="fill:#fff6a2;fill-opacity:1"
           inkscape:connector-curvature="0"
           d="M 67.380882,9.6567183 63.99609,18.349487 c -14.822651,-5.147034 -28.57338,0 -28.57338,0 L 32.037914,9.6567183 c 0,0 16.127377,-9.4362292 35.342968,0 z"
           id="path4966" />
        <path
           style="fill:#fff6a2;fill-opacity:1"
           inkscape:connector-curvature="0"
           d="m 67.609642,14.17467 -2.516327,6.462388 -2.973843,-1.258163 c 0,0 0.629082,6.233629 10.408444,6.233629 0,0 -3.259788,-2.287571 -3.66011,-5.43298 l 5.032653,-3.431356 c 0,0 -4.11763,0.171568 -6.290817,-2.573518 z"
           id="path4968" />
        <path
           style="fill:#fff6a2;fill-opacity:1"
           inkscape:connector-curvature="0"
           d="m 21.429306,41.339573 c 0,0 -4.803898,6.748333 27.793983,11.094719 34.216401,4.562187 33.741669,22.418194 22.87571,33.284153 0,0 0.800652,-14.411698 -23.790737,-18.52932 C 23.716877,63.071495 8.5045319,60.326408 21.429306,41.339573 Z"
           id="path4970" />
        <path
           style="fill:#fff6a2;fill-opacity:1"
           inkscape:connector-curvature="0"
           d="m 77.703545,38.251354 0,12.810394 c 0,0 5.947685,0.343136 11.89537,2.173192 0,0 -3.545738,-5.833306 -6.062065,-7.777741 0,0 4.00325,-2.516327 9.150284,-3.088219 0,0 -5.032654,-2.40195 -14.983589,-4.117626 z"
           id="path4972" />
        <path
           style="fill:#fff6a2;fill-opacity:1"
           inkscape:connector-curvature="0"
           d="m 30.57959,87.205368 c 0,0 -6.062063,-5.032661 -8.235255,-14.182938 0,0 -6.062063,-1.944435 -10.751583,-5.375793 0,0 2.859464,5.833305 5.261414,8.578392 0,0 -4.575142,1.258163 -9.0359058,0.686272 5e-7,0 10.5228248,6.405197 22.7613298,10.294067 z"
           id="path4974" />
        <text
           style="font-weight:bold;font-size:5px;font-family:'Helvetica Neue', Helvetica, Arial-Unicode, Arial, Sans-serif;fill:#fff6a2;fill-opacity:1"
           x="0"
           y="115"
           font-size="5px"
           font-weight="bold"
           id="text4976">Created by Alex Tai</text>
        <text
           style="font-weight:bold;font-size:5px;font-family:'Helvetica Neue', Helvetica, Arial-Unicode, Arial, Sans-serif;fill:#fff6a2;fill-opacity:1"
           x="0"
           y="120"
           font-size="5px"
           font-weight="bold"
           id="text4978">from the Noun Project</text>
      </g>
    </g>
  </g>
</svg>
