<?xml version="1.0" encoding="UTF-8" standalone="no"?>
<svg
   xmlns:dc="http://purl.org/dc/elements/1.1/"
   xmlns:cc="http://creativecommons.org/ns#"
   xmlns:rdf="http://www.w3.org/1999/02/22-rdf-syntax-ns#"
   xmlns:svg="http://www.w3.org/2000/svg"
   xmlns="http://www.w3.org/2000/svg"
   xmlns:sodipodi="http://sodipodi.sourceforge.net/DTD/sodipodi-0.dtd"
   xmlns:inkscape="http://www.inkscape.org/namespaces/inkscape"
   version="1.1"
   x="0px"
   y="0px"
   viewBox="0 0 286.40207 286.40207"
   enable-background="new 0 0 100 100"
   xml:space="preserve"
   id="svg7837"
   inkscape:version="0.91 r13725"
   sodipodi:docname="mobile.svg"
   width="286.40207"
   height="286.40207"><metadata
     id="metadata7881"><rdf:RDF><cc:Work
         rdf:about=""><dc:format>image/svg+xml</dc:format><dc:type
           rdf:resource="http://purl.org/dc/dcmitype/StillImage" /><dc:title></dc:title></cc:Work></rdf:RDF></metadata><defs
     id="defs7879" /><sodipodi:namedview
     pagecolor="#ffffff"
     bordercolor="#666666"
     borderopacity="1"
     objecttolerance="10"
     gridtolerance="10"
     guidetolerance="10"
     inkscape:pageopacity="0"
     inkscape:pageshadow="2"
     inkscape:window-width="1366"
     inkscape:window-height="768"
     id="namedview7877"
     showgrid="false"
     inkscape:zoom="0.236"
     inkscape:cx="518.12551"
     inkscape:cy="1019.5392"
     inkscape:window-x="0"
     inkscape:window-y="0"
     inkscape:window-maximized="0"
     inkscape:current-layer="g10061"
     fit-margin-top="0"
     fit-margin-left="0"
     fit-margin-right="0"
     fit-margin-bottom="0" /><g
     id="g10061"
     transform="translate(-70.782013,-175.65489)"><g
       id="g11051"><g
         id="g10057"
         transform="matrix(2.3968567,0,0,2.3968567,92.952547,194.61829)"><rect
           style="fill:#fff6a2;fill-opacity:1"
           id="rect7869"
           height="16"
           width="5"
           y="8"
           x="58" /><path
           style="fill:#fff6a2;fill-opacity:1"
           id="path7871"
           d="m 53.562,14 -8.799,0 C 35.042,14 27,22.953 27,34.002 l 0,40 C 27,85.046 35.042,94 44.762,94 l 8.799,0 C 63.282,94 71,85.046 71,74.002 l 0,-40 C 71,22.953 63.282,14 53.562,14 Z m -15.98,67.176 c -1.933,0 -3.5,-1.566 -3.5,-3.5 0,-1.934 1.567,-3.5 3.5,-3.5 1.933,0 3.5,1.566 3.5,3.5 0,1.934 -1.567,3.5 -3.5,3.5 z m 0,-11.206 c -1.933,0 -3.5,-1.566 -3.5,-3.5 0,-1.934 1.567,-3.5 3.5,-3.5 1.933,0 3.5,1.566 3.5,3.5 0,1.934 -1.567,3.5 -3.5,3.5 z m 0,-11.378 c -1.933,0 -3.5,-1.566 -3.5,-3.5 0,-1.934 1.567,-3.5 3.5,-3.5 1.933,0 3.5,1.566 3.5,3.5 0,1.934 -1.567,3.5 -3.5,3.5 z M 49,81.176 c -1.933,0 -3.5,-1.566 -3.5,-3.5 0,-1.934 1.567,-3.5 3.5,-3.5 1.933,0 3.5,1.566 3.5,3.5 0,1.934 -1.567,3.5 -3.5,3.5 z M 49,69.97 c -1.933,0 -3.5,-1.566 -3.5,-3.5 0,-1.934 1.567,-3.5 3.5,-3.5 1.933,0 3.5,1.566 3.5,3.5 0,1.934 -1.567,3.5 -3.5,3.5 z m 0,-11.378 c -1.933,0 -3.5,-1.566 -3.5,-3.5 0,-1.934 1.567,-3.5 3.5,-3.5 1.933,0 3.5,1.566 3.5,3.5 0,1.934 -1.567,3.5 -3.5,3.5 z m 11.5,22.584 c -1.934,0 -3.5,-1.566 -3.5,-3.5 0,-1.934 1.566,-3.5 3.5,-3.5 1.934,0 3.5,1.566 3.5,3.5 0,1.934 -1.566,3.5 -3.5,3.5 z m 0,-11.206 c -1.934,0 -3.5,-1.566 -3.5,-3.5 0,-1.934 1.566,-3.5 3.5,-3.5 1.934,0 3.5,1.566 3.5,3.5 0,1.934 -1.566,3.5 -3.5,3.5 z m 0,-11.378 c -1.934,0 -3.5,-1.566 -3.5,-3.5 0,-1.934 1.566,-3.5 3.5,-3.5 1.934,0 3.5,1.566 3.5,3.5 0,1.934 -1.566,3.5 -3.5,3.5 z M 64,41 l -30,0 0,-15 30,0 0,15 z"
           inkscape:connector-curvature="0" /></g><circle
         r="140.95103"
         cy="318.85593"
         cx="213.98305"
         id="circle5485"
         style="fill:none;fill-opacity:1;stroke:#fff6a2;stroke-width:4.5;stroke-miterlimit:4;stroke-dasharray:none;stroke-opacity:1" /></g></g></svg>