<?xml version="1.0" encoding="UTF-8" standalone="no"?>
<svg id="svg5431" xmlns:rdf="http://www.w3.org/1999/02/22-rdf-syntax-ns#" xmlns="http://www.w3.org/2000/svg" enable-background="new 0 0 99 99" xml:space="preserve" height="302.14" width="300" version="1.1" y="0px" x="0px" xmlns:cc="http://creativecommons.org/ns#" xmlns:dc="http://purl.org/dc/elements/1.1/" viewBox="0 0 300 302.13937"><metadata id="metadata5443"><rdf:RDF><cc:Work rdf:about=""><dc:format>image/svg+xml</dc:format><dc:type rdf:resource="http://purl.org/dc/dcmitype/StillImage"/><dc:title/></cc:Work></rdf:RDF></metadata><g id="g6000" transform="matrix(1.0295 0 0 1.0295 104.65 88.446)"><path id="path5433" d="m-1.1395 83.46c17.951 24.778 57.785 62.048 78.801 63.203 20.862 1.1569 31.042-12.513 31.042-12.513l-35.937-36.673s-2.1383 4.1261-5.7438 4.4134c-2.41 0.06-15.348-1.85-35.477-30.5-20.361-28.96-19.725-32.045-17.797-38.003 0.598-1.87 3.163-3.066 3.163-3.066l-27.649-49.051s-21.228 12.263-20.65 30.136c0.59771 17.816 12.108 47.046 30.252 72.053zm80.303 7.6546 38.757 37.388s3.7598-6.3647 4.936-8.6205c1.1954-2.2559 2.6627-3.8157-2.6608-8.2504-5.3428-4.4558-25.47-22.192-28.324-24.622-2.8517-2.4506-5.8595-3.781-9.3127 0.30657-3.3549 3.9912-3.3954 3.7984-3.3954 3.7984zm-55.913-67.427s0.53987-0.28922 5.3794-2.6222c4.9745-2.3908 4.5118-5.6493 2.9307-8.985-1.6-3.3739-13.458-27.437-16.369-33.838-2.912-6.401-4.898-5.321-7.4815-4.704-2.6029 0.617-10.026 2.776-10.026 2.776l25.567 47.373z" fill-rule="evenodd" clip-rule="evenodd" fill="#fff6a2"/><ellipse id="path4484-1" rx="140.7" ry="141.73" stroke="#fff6a2" cy="60.826" cx="44.047" stroke-width="10" fill="none"/></g></svg>
