<?xml version="1.0" encoding="UTF-8" standalone="no"?>
<svg
   xmlns:dc="http://purl.org/dc/elements/1.1/"
   xmlns:cc="http://creativecommons.org/ns#"
   xmlns:rdf="http://www.w3.org/1999/02/22-rdf-syntax-ns#"
   xmlns:svg="http://www.w3.org/2000/svg"
   xmlns="http://www.w3.org/2000/svg"
   xmlns:sodipodi="http://sodipodi.sourceforge.net/DTD/sodipodi-0.dtd"
   xmlns:inkscape="http://www.inkscape.org/namespaces/inkscape"
   version="1.1"
   x="0px"
   y="0px"
   viewBox="0 0 286.40207 286.40207"
   enable-background="new 0 0 100 100"
   xml:space="preserve"
   id="svg10305"
   inkscape:version="0.91 r13725"
   sodipodi:docname="phone.svg"
   width="286.40207"
   height="286.40207"><metadata
     id="metadata10469"><rdf:RDF><cc:Work
         rdf:about=""><dc:format>image/svg+xml</dc:format><dc:type
           rdf:resource="http://purl.org/dc/dcmitype/StillImage" /><dc:title></dc:title></cc:Work></rdf:RDF></metadata><defs
     id="defs10467" /><sodipodi:namedview
     pagecolor="#ffffff"
     bordercolor="#666666"
     borderopacity="1"
     objecttolerance="10"
     gridtolerance="10"
     guidetolerance="10"
     inkscape:pageopacity="0"
     inkscape:pageshadow="2"
     inkscape:window-width="1366"
     inkscape:window-height="768"
     id="namedview10465"
     showgrid="false"
     fit-margin-top="0"
     fit-margin-left="0"
     fit-margin-right="0"
     fit-margin-bottom="0"
     inkscape:zoom="0.944"
     inkscape:cx="329.33296"
     inkscape:cy="272.81037"
     inkscape:window-x="0"
     inkscape:window-y="0"
     inkscape:window-maximized="0"
     inkscape:current-layer="svg10305" /><g
     id="g10307"
     transform="translate(88.645947,81.760361)" /><g
     id="g11026"
     transform="translate(88.645947,81.760361)"><g
       transform="matrix(1.7792714,0,0,1.7792714,-32.467611,-33.246883)"
       style="fill:#fff6a2;fill-opacity:1"
       id="g10417"><circle
         style="fill:#fff6a2;fill-opacity:1"
         id="circle10419"
         r="12.853"
         cy="63.175999"
         cx="49.764999" /><circle
         style="fill:#fff6a2;fill-opacity:1"
         id="circle10421"
         r="3.632"
         cy="63.743999"
         cx="32.080002" /><circle
         style="fill:#fff6a2;fill-opacity:1"
         id="circle10423"
         r="3.632"
         cy="55.601002"
         cx="34.070999" /><circle
         style="fill:#fff6a2;fill-opacity:1"
         id="circle10425"
         r="3.632"
         cy="48.93"
         cx="39.728001" /><circle
         style="fill:#fff6a2;fill-opacity:1"
         id="circle10427"
         r="3.632"
         cy="45.769001"
         cx="47.979" /><circle
         style="fill:#fff6a2;fill-opacity:1"
         id="circle10429"
         r="3.632"
         cy="46.674"
         cx="56.388" /><circle
         style="fill:#fff6a2;fill-opacity:1"
         id="circle10431"
         r="3.632"
         cy="51.789001"
         cx="63.191002" /><circle
         style="fill:#fff6a2;fill-opacity:1"
         id="circle10433"
         r="3.6329999"
         cy="72.404999"
         cx="34.564999" /><circle
         style="fill:#fff6a2;fill-opacity:1"
         id="circle10435"
         r="3.6329999"
         cy="78.605003"
         cx="41.103001" /><circle
         style="fill:#fff6a2;fill-opacity:1"
         id="circle10437"
         r="3.6329999"
         cy="80.728996"
         cx="49.789001" /><path
         inkscape:connector-curvature="0"
         style="fill:#fff6a2;fill-opacity:1"
         id="path10439"
         d="m 61.979,79.105 c -0.477,1.949 -2.441,3.143 -4.392,2.667 -1.948,-0.478 -3.142,-2.442 -2.665,-4.391 0.477,-1.952 2.442,-3.143 4.391,-2.668 1.949,0.478 3.142,2.443 2.666,4.392 z" /><g
         style="fill:#fff6a2;fill-opacity:1"
         id="g10441"><path
           inkscape:connector-curvature="0"
           style="fill:#fff6a2;fill-opacity:1"
           id="path10443"
           d="m 67,37 c 0,1.65 -1.35,3 -3,3 l -3,0 c -1.65,0 -3,-1.35 -3,-3 l 0,-9 c 0,-1.65 1.35,-3 3,-3 l 3,0 c 1.65,0 3,1.35 3,3 l 0,9 z" /></g><g
         style="fill:#fff6a2;fill-opacity:1"
         id="g10445"><path
           inkscape:connector-curvature="0"
           style="fill:#fff6a2;fill-opacity:1"
           id="path10447"
           d="m 42,37 c 0,1.65 -1.35,3 -3,3 l -3,0 c -1.65,0 -3,-1.35 -3,-3 l 0,-9 c 0,-1.65 1.35,-3 3,-3 l 3,0 c 1.65,0 3,1.35 3,3 l 0,9 z" /></g><path
         inkscape:connector-curvature="0"
         style="fill:#fff6a2;fill-opacity:1"
         id="path10449"
         d="M 90,15 C 87,10 55,8 50,8 45,8 13,10 10,15 7,20 7,26 7,28 c 0,0.67 0,5 3,5 4,0 12.67,0 14,0 2,0 4,-2 4,-4 0,-2 0,-6 3,-7 3,-1 19,-2 19,-2 0,0 16,1 19,2 3,1 3,5 3,7 0,2 2,4 4,4 1.33,0 10,0 14,0 3,0 3,-4.33 3,-5 0,-2 0,-8 -3,-13 z" /><g
         style="fill:#fff6a2;fill-opacity:1"
         id="g10451"><path
           inkscape:connector-curvature="0"
           style="fill:#fff6a2;fill-opacity:1"
           id="path10453"
           d="m 32,93.5 c 0,0.825 -0.9,1.5 -2,1.5 l -8,0 c -1.1,0 -2,-0.675 -2,-1.5 0,-0.825 0.9,-1.5 2,-1.5 l 8,0 c 1.1,0 2,0.675 2,1.5 z" /></g><g
         style="fill:#fff6a2;fill-opacity:1"
         id="g10455"><path
           inkscape:connector-curvature="0"
           style="fill:#fff6a2;fill-opacity:1"
           id="path10457"
           d="m 80,93.5 c 0,0.825 -0.9,1.5 -2,1.5 l -8,0 c -1.1,0 -2,-0.675 -2,-1.5 0,-0.825 0.9,-1.5 2,-1.5 l 8,0 c 1.1,0 2,0.675 2,1.5 z" /></g><path
         inkscape:connector-curvature="0"
         style="fill:#fff6a2;fill-opacity:1"
         id="path10459"
         d="M 78.295,39.989 C 77.206,38.078 76.178,36.311 74,36 67,35 60.5,34.5 50,34.5 39.5,34.5 33,35 26,36 23.822,36.311 22.794,38.078 21.705,39.989 16,50 14,65 14.295,87.011 c 0.029,2.2 2.521,5.717 4.705,5.989 8,1 19.5,1.5 31,1.5 11.5,0 23,-0.5 31,-1.5 2.184,-0.272 4.676,-3.789 4.705,-5.989 C 86,65 84,50 78.295,39.989 Z M 69.325,74.804 64,71 l -1,1 3.636,6.362 C 63.759,81.475 59.969,83.808 55.543,84.89 53.686,85.344 51.828,85.541 50,85.523 48.172,85.542 46.314,85.344 44.457,84.89 32.464,81.958 25.12,69.86 28.051,57.868 30.567,47.574 39.839,40.711 50,40.826 c 10.16,-0.115 19.433,6.748 21.949,17.042 1.469,6.007 0.358,12.041 -2.624,16.936 z" /></g><circle
       r="140.95103"
       cy="61.440674"
       cx="54.555088"
       id="circle5485"
       style="fill:none;fill-opacity:1;stroke:#fff6a2;stroke-width:4.5;stroke-miterlimit:4;stroke-dasharray:none;stroke-opacity:1" /></g></svg>