<?xml version="1.0" encoding="UTF-8" standalone="no"?>
<!-- Created with Inkscape (http://www.inkscape.org/) -->
<svg id="svg4985" xmlns:rdf="http://www.w3.org/1999/02/22-rdf-syntax-ns#" xmlns="http://www.w3.org/2000/svg" height="85.253mm" viewBox="0 0 300.00077 302.07615" width="84.667mm" version="1.1" xmlns:cc="http://creativecommons.org/ns#" xmlns:dc="http://purl.org/dc/elements/1.1/">
 <defs id="defs4987">
  <clipPath id="clipPath5075-3" clipPathUnits="userSpaceOnUse">
   <rect id="rect5077-4" height="113.8" width="155.78" stroke="#2e2e2e" y="-12.902" x="-30.875" stroke-width="10" fill="#fff6a2"/>
  </clipPath>
 </defs>
 <metadata id="metadata4990">
  <rdf:RDF>
   <cc:Work rdf:about="">
    <dc:format>image/svg+xml</dc:format>
    <dc:type rdf:resource="http://purl.org/dc/dcmitype/StillImage"/>
    <dc:title/>
   </cc:Work>
  </rdf:RDF>
 </metadata>
 <g id="layer1" transform="translate(-153.68 -72.875)">
  <g id="g5861" transform="translate(13666 9782.7)">
   <g id="g4299" transform="matrix(1.9179 0 0 1.9175 12399 8682.6)">
    <g id="g5061" transform="matrix(.92056 0 0 .92056 -13474 -9560.5)" fill="#fff6a2" clip-path="url(#clipPath5075-3)">
     <g id="g5035">
      <circle id="circle5037" cy="13.984" cx="18.557" r="10.439"/>
      <circle id="circle5039" cy="13.984" cx="44.277" r="10.44"/>
      <circle id="circle5041" cy="13.984" cx="69.867" r="10.44"/>
      <path id="path5043" d="m59.231 28.193h-29.77c-2.544 0-4.606 2.062-4.606 4.604v26.32c0 2.545 2.062 4.604 4.606 4.604h1.417v32.55h26.393v-32.55h1.96c2.544 0 4.604-2.06 4.604-4.604v-26.32c-0.001-2.541-2.06-4.604-4.604-4.604z"/>
      <g id="g5045">
       <path id="path5047" d="m18.361 59.118v-26.32c0-1.646 0.383-3.196 1.028-4.604h-15.374c-2.542 0-4.604 2.062-4.604 4.604v26.32c0 2.545 2.062 4.604 4.604 4.604h1.418v32.55h18.949v-27.284c-3.573-1.844-6.021-5.577-6.021-9.87z"/>
       <path id="path5049" d="m85.083 28.193h-15.779c0.645 1.408 1.029 2.959 1.029 4.604v26.32c0 4.508-2.7 8.392-6.566 10.13v27.024h19.358v-32.55h1.957c2.543 0 4.606-2.06 4.606-4.604v-26.32c0.001-2.541-2.063-4.604-4.605-4.604z"/>
      </g>
     </g>
     <text id="text5051" font-size="5px" font-weight="bold" y="114.818" x="-3.4560001" font-family="&apos;Helvetica Neue&apos;, Helvetica, Arial-Unicode, Arial, Sans-serif">Created by Björn Andersson</text>
     <text id="text5053" font-size="5px" font-weight="bold" y="119.818" x="-3.4560001" font-family="&apos;Helvetica Neue&apos;, Helvetica, Arial-Unicode, Arial, Sans-serif">from the Noun Project</text>
    </g>
    <ellipse id="path4484-3-2" rx="75.603" stroke="#fff6a2" ry="76.161" cy="-9513.2" cx="-13432" stroke-width="5.2146" fill="none"/>
   </g>
  </g>
 </g>
</svg>
