<?xml version="1.0" encoding="UTF-8" standalone="no"?>
<!-- Created with Inkscape (http://www.inkscape.org/) -->

<svg
   xmlns:dc="http://purl.org/dc/elements/1.1/"
   xmlns:cc="http://creativecommons.org/ns#"
   xmlns:rdf="http://www.w3.org/1999/02/22-rdf-syntax-ns#"
   xmlns:svg="http://www.w3.org/2000/svg"
   xmlns="http://www.w3.org/2000/svg"
   xmlns:sodipodi="http://sodipodi.sourceforge.net/DTD/sodipodi-0.dtd"
   xmlns:inkscape="http://www.inkscape.org/namespaces/inkscape"
   width="150.53566mm"
   height="151.5778mm"
   viewBox="0 0 533.39375 537.08663"
   id="svg4985"
   version="1.1"
   inkscape:version="0.91 r13725"
   sodipodi:docname="Trust.svg">
  <defs
     id="defs4987">
    <clipPath
       clipPathUnits="userSpaceOnUse"
       id="clipPath5008-5">
      <rect
         style="fill:#fff6a2;fill-opacity:1;stroke:#fff6a2;stroke-width:10;stroke-miterlimit:4;stroke-dasharray:none;stroke-opacity:1"
         id="rect5010-35"
         width="124.75384"
         height="108.08632"
         x="-18.271376"
         y="-7.9389219" />
    </clipPath>
  </defs>
  <sodipodi:namedview
     id="base"
     pagecolor="#ffffff"
     bordercolor="#666666"
     borderopacity="1.0"
     inkscape:pageopacity="0.0"
     inkscape:pageshadow="2"
     inkscape:zoom="0.98994949"
     inkscape:cx="199.57532"
     inkscape:cy="433.50426"
     inkscape:document-units="px"
     inkscape:current-layer="layer1"
     showgrid="false"
     inkscape:showpageshadow="false"
     showborder="true"
     inkscape:window-width="1362"
     inkscape:window-height="729"
     inkscape:window-x="0"
     inkscape:window-y="18"
     inkscape:window-maximized="0"
     fit-margin-top="0"
     fit-margin-left="0"
     fit-margin-right="0"
     fit-margin-bottom="0" />
  <metadata
     id="metadata4990">
    <rdf:RDF>
      <cc:Work
         rdf:about="">
        <dc:format>image/svg+xml</dc:format>
        <dc:type
           rdf:resource="http://purl.org/dc/dcmitype/StillImage" />
        <dc:title></dc:title>
      </cc:Work>
    </rdf:RDF>
  </metadata>
  <g
     inkscape:label="Layer 1"
     inkscape:groupmode="layer"
     id="layer1"
     transform="translate(87.209964,-104.06224)">
    <g
       transform="matrix(2.3209149,0,0,2.320511,29950.565,26572.582)"
       id="g4216"
       style="display:inline">
      <ellipse
         style="fill:none;fill-opacity:1;stroke:#fff6a2;stroke-width:4.309021;stroke-miterlimit:4;stroke-dasharray:none;stroke-opacity:1"
         id="ellipse4218"
         cx="-12827.303"
         cy="-11290.606"
         rx="112.75578"
         ry="113.57143" />
      <g
         id="g4220"
         transform="matrix(2.1615919,0,0,2.1615919,-12934.241,-11399.434)"
         style="fill:#fff6a2;fill-opacity:1">
        <g
           id="g4222"
           style="fill:#fff6a2;fill-opacity:1">
          <g
             id="g4224"
             style="fill:#fff6a2;fill-opacity:1">
            <g
               id="g4226"
               style="fill:#fff6a2;fill-opacity:1">
              <g
                 id="g4228"
                 style="fill:#fff6a2;fill-opacity:1">
                <path
                   id="path4230"
                   d="m 82.633,51.544 c 0.014,0.028 0.014,0.057 0.027,0.089 l -0.027,0.016 0,-0.105 z"
                   inkscape:connector-curvature="0"
                   style="fill:#fff6a2;fill-opacity:1" />
                <path
                   id="path4232"
                   d="m 76.68,31.081 c 0,0.014 0,0.014 0,0.028 l -0.018,-0.028 0.018,0 z"
                   inkscape:connector-curvature="0"
                   style="fill:#fff6a2;fill-opacity:1" />
                <path
                   id="path4234"
                   d="m 69.785,57.375 c -0.105,-1.39 1.037,-2.359 2.406,-3.035 0.061,-0.03 0.107,-0.061 0.164,-0.076 1.264,1.715 0.184,4.374 -1.922,4.948 10e-4,0 -0.609,-1.351 -0.648,-1.837 z"
                   inkscape:connector-curvature="0"
                   style="fill:#fff6a2;fill-opacity:1" />
                <path
                   id="path4236"
                   d="m 66.045,63.959 c -1.346,-0.691 -3.098,-3.496 -3.281,-5.067 -0.07,-0.621 0.109,-1.653 0.889,-2.255 2.703,-2.086 4.059,0.307 4.615,1.434 0,0 1.395,2.559 1.412,3.5 0.031,1.484 -2.174,3.149 -3.635,2.388 z"
                   inkscape:connector-curvature="0"
                   style="fill:#fff6a2;fill-opacity:1" />
                <path
                   id="path4238"
                   d="m 60.846,57.391 c -0.088,0.359 -0.162,0.662 -0.254,0.915 0,-0.271 0.092,-0.584 0.254,-0.915 z"
                   inkscape:connector-curvature="0"
                   style="fill:#fff6a2;fill-opacity:1" />
                <path
                   id="path4240"
                   d="m 60.576,58.397 c -0.227,-0.014 -0.527,-0.078 -0.869,-0.15 0.463,-0.013 0.764,0.094 0.869,0.15 z"
                   inkscape:connector-curvature="0"
                   style="fill:#fff6a2;fill-opacity:1" />
                <path
                   id="path4242"
                   d="m 59.973,42.326 c -1.996,5.029 -11.49,-5.091 -13.93,-3.964 -1.695,0.856 -14.822,12.318 -16.195,13.478 -6.795,5.738 -5.82,7.935 -6.229,8.041 0.074,-0.019 -1.764,0.497 -6.506,-0.941 -1.186,-0.377 -2.332,-0.705 -3.324,-0.841 0.527,-1.687 1.129,-3.352 1.82,-5.04 2.059,-5.062 4.15,-10.975 6.482,-16.235 0.553,0.238 1.129,0.525 1.699,0.812 4.115,2.002 9.23,4.495 13.152,-0.031 2.254,-2.556 6.518,-5.967 10.064,-6.42 3.053,-0.437 14.326,9.103 12.967,11.141 z"
                   inkscape:connector-curvature="0"
                   style="fill:#fff6a2;fill-opacity:1" />
                <path
                   id="path4244"
                   d="m 57.895,60.822 c 1.111,-0.989 2.236,-0.904 2.926,-0.614 1.943,0.813 3.777,4.323 3.777,4.323 0.471,2.452 -1.975,4.285 -4.148,3.367 -1.02,-0.43 -2.576,-2.192 -3.072,-3.182 -0.439,-0.875 -0.507,-3.115 0.517,-3.894 z"
                   inkscape:connector-curvature="0"
                   style="fill:#fff6a2;fill-opacity:1" />
                <path
                   id="path4246"
                   d="m 59.543,69.489 c 0.732,1.929 -2.166,3.907 -5.143,2.674 0,0 -0.023,0.002 -0.031,0 -0.064,-0.032 -0.088,-0.15 -0.135,-0.271 C 54.1,71.546 53.52,70.831 53.52,70.3 c -0.492,-1.46 0.453,-2.658 1.207,-3.321 1.285,-1.519 4.371,1.347 4.816,2.51 z"
                   inkscape:connector-curvature="0"
                   style="fill:#fff6a2;fill-opacity:1" />
                <path
                   id="path4248"
                   d="m 53.141,65.545 c -1.338,1.205 -1.281,1.925 -1.252,3.371 0,0.313 0.27,1.421 0.314,1.706 -6.047,3.698 -5.973,-1.379 -5.82,-1.455 6.795,-6.455 7.891,-10.192 7.891,-10.192 -0.529,0.227 -6.727,7.564 -9.477,8.946 -2.707,1.386 -4.031,1.045 -5.01,0.459 -0.451,-0.27 -0.725,-0.825 -0.799,-1.637 4.451,-1.54 11.586,-10.373 11.699,-11.732 0,0 -8.494,9.286 -12.871,10.405 -0.75,0.26 -1.443,0.377 -2.045,0.377 -1.066,0 -1.82,-0.239 -2.213,-0.719 -0.48,-0.604 -0.584,-1.673 -0.283,-3.188 5.859,-3.515 12.504,-10.536 11.748,-11.065 l -6.303,5.286 c -2.93,2.18 -8.945,6.053 -9.1,5.812 -0.977,0.361 -1.676,0.193 -2.822,-0.56 -0.328,-0.212 -0.537,-0.467 -0.645,-0.78 -2.762,-2.964 8.111,-8.626 20.455,-20.404 2.039,0.68 7.135,5.549 11.326,5.436 1.734,-0.048 4.633,-1.716 4.643,-3.397 0.031,-2.467 -5.789,-7.505 -8.494,-9.626 2.135,-0.135 6.793,0.493 9.275,0.674 1.939,0.15 3.893,0.287 5.803,0.287 2.902,0 5.125,-0.527 7.383,-1.747 1.986,4.628 5.26,19.079 4.824,19.063 C 78.258,50.82 74,50.759 71.102,52.22 c -1.443,0.706 -2.434,1.728 -2.961,3.049 -1.926,-1.665 -4.074,-1.907 -5.818,-0.6 -0.754,0.571 -1.037,1.807 -1.25,2.798 -0.162,0.331 -0.254,0.644 -0.254,0.915 l 0,0.014 c 0,0.034 0,0.046 -0.016,0.078 -0.105,-0.057 -0.406,-0.163 -0.869,-0.15 -0.018,0 -0.018,0 -0.033,0 0,0 -0.014,0 -0.031,0 -0.928,-0.166 -2.223,-0.316 -3.338,0.525 -1.348,1.037 -1.26,2.776 -0.807,4.236 0.088,0.523 0.131,0.972 0.312,1.503 -0.617,0.086 -2.488,0.598 -2.896,0.957 z"
                   inkscape:connector-curvature="0"
                   style="fill:#fff6a2;fill-opacity:1" />
              </g>
            </g>
          </g>
        </g>
      </g>
    </g>
  </g>
</svg>
