<?xml version="1.0" encoding="UTF-8" standalone="no"?>
<svg
   xmlns:dc="http://purl.org/dc/elements/1.1/"
   xmlns:cc="http://creativecommons.org/ns#"
   xmlns:rdf="http://www.w3.org/1999/02/22-rdf-syntax-ns#"
   xmlns:svg="http://www.w3.org/2000/svg"
   xmlns="http://www.w3.org/2000/svg"
   xmlns:sodipodi="http://sodipodi.sourceforge.net/DTD/sodipodi-0.dtd"
   xmlns:inkscape="http://www.inkscape.org/namespaces/inkscape"
   version="1.1"
   x="0px"
   y="0px"
   viewBox="-0.726 -0.476 300 300"
   enable-background="new -0.726 -0.476 100 100"
   xml:space="preserve"
   id="svg7020"
   inkscape:version="0.91 r13725"
   sodipodi:docname="world.svg"
   width="300"
   height="300"><metadata
     id="metadata7040"><rdf:RDF><cc:Work
         rdf:about=""><dc:format>image/svg+xml</dc:format><dc:type
           rdf:resource="http://purl.org/dc/dcmitype/StillImage" /><dc:title></dc:title></cc:Work></rdf:RDF></metadata><defs
     id="defs7038" /><sodipodi:namedview
     pagecolor="#ffffff"
     bordercolor="#666666"
     borderopacity="1"
     objecttolerance="10"
     gridtolerance="10"
     guidetolerance="10"
     inkscape:pageopacity="0"
     inkscape:pageshadow="2"
     inkscape:window-width="1366"
     inkscape:window-height="768"
     id="namedview7036"
     showgrid="false"
     inkscape:zoom="1.142"
     inkscape:cx="134.63748"
     inkscape:cy="146.19551"
     inkscape:window-x="0"
     inkscape:window-y="0"
     inkscape:window-maximized="0"
     inkscape:current-layer="svg7020"
     fit-margin-top="0"
     fit-margin-left="0"
     fit-margin-right="0"
     fit-margin-bottom="0" /><path
     d="m 149.27552,-0.47600001 c -82.711857,0 -150.00152001,67.28966001 -150.00152001,150.00152001 0,82.70882 67.28966301,149.99848 150.00152001,149.99848 82.71185,0 149.99848,-67.28966 149.99848,-149.99848 0,-82.71186 -67.28663,-150.00152001 -149.99848,-150.00152001 z m 54.82266,276.46166001 -9.05368,-2.81562 -12.13629,-2.02372 -21.99702,5.0578 -6.06815,4.04442 -11.12594,0 -6.8297,0.25486 -7.33032,-3.28894 -4.55111,-6.06814 -5.40065,-1.51704 0.84954,5.81632 -4.04442,6.31997 -13.65332,-7.07849 -4.341763,2.93698 C 47.503619,257.34129 11.410291,207.5825 11.410291,149.52552 c 0,-7.99478 0.722109,-15.81662 2.032828,-23.44428 l 11.945144,3.9807 8.091872,5.0578 2.527382,5.33693 4.551109,9.06581 8.091872,3.8017 -17.697746,7.58518 -0.50669,23.76589 2.208805,10.61925 9.42383,5.56449 5.561455,8.08884 14.663673,26.29631 6.301769,17.19409 12.916047,12.63994 11.125944,4.55111 3.034073,-5.05476 -4.551109,-9.60891 0.84954,-16.6874 2.691223,-10.11256 16.180708,-7.58519 -4.55111,-11.63263 c 0,0 6.57484,-12.63995 6.06815,-15.67402 -0.50669,-3.03407 9.10222,-7.58518 9.10222,-7.58518 l 4.68764,-2.12992 3.40423,-8.48934 -1.64447,-6.35941 -5.94071,-1.73246 -14.66368,-17.45502 -13.146634,-9.06581 -33.881489,-2.30286 -6.574836,6.06815 -7.078491,0.50669 1.010346,-6.57484 -1.010346,-4.55111 3.034072,-7.07849 4.711915,-2.99766 -2.691222,-4.08083 -10.112564,0 c 0,0 -5.057799,-8.09187 -8.595528,-12.13629 -3.537729,-4.04442 14.663673,-29.33038 14.663673,-29.33038 l 18.204436,-0.50669 2.761006,10.11256 4.824175,5.0578 7.078492,2.52739 -4.551109,-12.13629 0,-7.58519 5.816317,-9.10221 6.319973,-10.61926 0,-3.03407 0,-6.06815 6.068146,-3.03407 11.125948,-2.52738 1.79313,-5.77081 c 0,0 -2.42726,-5.36424 -1.28644,-6.36548 1.14081,-1.00125 1.58378,-8.09187 6.20467,-11.63264 0.30645,-0.23362 0.54614,-0.46118 0.74335,-0.68266 4.72102,-1.30162 9.53609,-2.36658 14.44522,-3.16151 l -2.68212,4.85452 0,7.07849 9.10222,0 4.55111,-5.56145 11.11988,-3.54077 -0.25487,-4.61786 c 0.0789,0.003 0.16384,-0.003 0.2488,-0.003 8.37707,0 16.563,0.79189 24.53047,2.23004 l -5.56752,2.01766 9.49058,3.72888 10.54947,2.11778 5.50077,3.63482 1.01338,10.11256 12.63995,8.09188 10.31585,1.76583 -4.2477,5.81935 -8.59553,4.04442 -5.0578,5.05779 1.51704,6.57484 13.07685,4.52987 6.64462,-2.50614 8.90804,-3.03408 4.74529,-7.07849 7.08152,4.55111 -2.53042,7.07849 13.90516,2.02373 10.87412,7.07849 0,3.03407 -10.87412,-10.11256 -17.44288,-1.01035 -16.18375,0.50669 -10.61925,5.56146 -10.61926,5.0578 -11.12291,9.10222 -4.55111,12.64298 4.55111,7.58518 2.93092,8.40741 -5.96499,6.83577 5.05477,9.53305 14.16001,7.0785 10.61926,8.59552 15.98956,2.02373 10.30674,2.02373 9.10222,-2.02373 4.55111,7.58518 0.50366,7.07849 -3.53773,12.13629 3.2859,5.0578 -11.37777,15.17037 0,10.11256 -4.86059,15.98653 -5.75867,8.28605 6.38369,7.58518 8.54395,-0.0789 3.22522,-2.95518 2.35444,0.20631 c -13.31958,15.12789 -29.88865,27.32486 -48.62101,35.47438 z"
     id="path7022"
     style="fill:#fff6a2;fill-opacity:1"
     inkscape:connector-curvature="0" /><polygon
     points="24.107,37.524 25.607,36.524 22.941,35.524 20.274,35.524 20.274,36.524 21.774,36.524 "
     id="polygon7024"
     style="fill:#fff6a2;fill-opacity:1"
     transform="translate(-0.72600001,200.647)" /><polygon
     points="27.774,34.524 26.274,35.524 28.44,36.524 29.274,35.524 "
     id="polygon7026"
     style="fill:#fff6a2;fill-opacity:1"
     transform="translate(-0.72600001,200.647)" /><polygon
     points="31.274,37.524 32.94,37.024 31.274,36.524 "
     id="polygon7028"
     style="fill:#fff6a2;fill-opacity:1"
     transform="translate(-0.72600001,200.647)" /><path
     d="m 62.215,211.171 c 0,0 -0.458,-1.125 -0.626,-2.125 -0.166,-1 -2.958,0.042 -2.958,0.042 l -1.25,0.804 3.167,1.279 1.667,0 z"
     id="path7030"
     style="fill:#fff6a2;fill-opacity:1"
     inkscape:connector-curvature="0" /></svg>